<svg xmlns="http://www.w3.org/2000/svg" style="display:none" aria-hidden="true">
  <symbol id="icon-inference" viewBox="0 0 24 24" fill="none" stroke="currentColor" stroke-width="2" stroke-linecap="round" stroke-linejoin="round">
    <path d="M 3.5 18.5 H 20.5"/>
    <path d="M 3.5 18.5 C 8.5 18.5 9.5 5.5 12 5.5 C 14.5 5.5 15.5 18.5 20.5 18.5"/>
    <path d="M 12 18.5 V 15.5"/>
  </symbol>
  <symbol id="icon-stellar-evolution" viewBox="0 0 24 24" fill="none" stroke="currentColor" stroke-width="2" stroke-linecap="round" stroke-linejoin="round">
    <circle cx="5.5" cy="18.5" r="2.5"/>
    <path d="M 8.5 15.5 L 13.5 10.5"/>
    <path d="M 11 10.5 H 13.5 V 13"/>
    <circle cx="17.5" cy="6.5" r="3.5"/>
  </symbol>
  <symbol id="icon-dark-matter-and-cosmology" viewBox="0 0 24 24" fill="none" stroke="currentColor" stroke-width="2" stroke-linecap="round" stroke-linejoin="round">
    <circle cx="12" cy="12" r="8.5" stroke-dasharray="4.500 6.181" stroke-dashoffset="10.261"/>
    <ellipse cx="12" cy="12" rx="2.5" ry="3.5"/>
  </symbol>
  <symbol id="icon-ai-for-scientists" viewBox="0 0 24 24" fill="none" stroke="currentColor" stroke-width="2" stroke-linecap="round" stroke-linejoin="round">
    <circle cx="12" cy="12" r="3"/>
    <circle cx="5.5" cy="5.5" r="2.5"/>
    <circle cx="18.5" cy="5.5" r="2.5"/>
    <circle cx="5.5" cy="18.5" r="2.5"/>
    <path d="M 9 9 L 8 8"/>
    <path d="M 15 9 L 16 8"/>
    <path d="M 9 15 L 8 16"/>
  </symbol>
  <symbol id="icon-the-milky-way" viewBox="0 0 24 24" fill="none" stroke="currentColor" stroke-width="2" stroke-linecap="round" stroke-linejoin="round">
    <path d="M 3.5 12 C 7 11.6 7.5 5.5 12 5.5 C 16.5 5.5 17 11.6 20.5 12 C 17 12.4 16.5 18.5 12 18.5 C 7.5 18.5 7 12.4 3.5 12 Z"/>
  </symbol>
  <symbol id="icon-galaxies" viewBox="0 0 24 24" fill="none" stroke="currentColor" stroke-width="2" stroke-linecap="round" stroke-linejoin="round">
    <ellipse cx="9.5" cy="15" rx="6.5" ry="4" transform="rotate(-20 9.5 15)"/>
    <ellipse cx="18" cy="8" rx="4" ry="2.5" transform="rotate(-55 18 8)"/>
  </symbol>
  <symbol id="icon-transients" viewBox="0 0 24 24" fill="none" stroke="currentColor" stroke-width="2" stroke-linecap="round" stroke-linejoin="round">
    <path d="M 3.5 20 H 8.5 L 11.5 4 C 13.5 12 15.5 19 21 19.5"/>
  </symbol>
  <symbol id="icon-star-formation" viewBox="0 0 24 24" fill="none" stroke="currentColor" stroke-width="2" stroke-linecap="round" stroke-linejoin="round">
    <path d="M 16.068 9.236 A 5 5 0 1 1 12.322 18.149 A 5.25 5.25 0 1 1 8.148 8.988 A 4 4 0 1 1 16.068 9.236 Z"/>
    <circle cx="12.125" cy="12.3125" r="2.5"/>
  </symbol>
</svg>
